<?xml version="1.0" encoding="utf-8"?>
<!-- Generator: Adobe Illustrator 15.1.0, SVG Export Plug-In  -->
<!DOCTYPE svg PUBLIC "-//W3C//DTD SVG 1.1//EN" "http://www.w3.org/Graphics/SVG/1.1/DTD/svg11.dtd" [
	<!ENTITY ns_flows "http://ns.adobe.com/Flows/1.0/">
]>
<svg version="1.1"
	 xmlns="http://www.w3.org/2000/svg" xmlns:xlink="http://www.w3.org/1999/xlink" xmlns:a="http://ns.adobe.com/AdobeSVGViewerExtensions/3.0/"
	 x="0px" y="0px" width="128px" height="128px" viewBox="-11.667 -11.988 128 128" enable-background="new -11.667 -11.988 128 128"
	 xml:space="preserve">
<defs>
</defs>
<path fill="#831338" d="M70.517,52.696l31.184-31.186c4.922-4.92,4.922-12.899,0.002-17.82c-4.922-4.92-12.899-4.92-17.821,0
	L52.697,34.876L21.511,3.69C16.59-1.23,8.611-1.23,3.69,3.69c-4.92,4.92-4.92,12.899,0,17.82l31.186,31.186L3.691,83.881
	c-4.921,4.921-4.921,12.9,0,17.82c4.92,4.921,12.899,4.921,17.82,0l31.186-31.185l31.185,31.185c4.92,4.921,12.899,4.921,17.819,0
	c4.921-4.92,4.921-12.899,0-17.82L70.517,52.696z"/>
</svg>
