<?xml version="1.0" encoding="utf-8"?>
<!-- Generator: Adobe Illustrator 15.1.0, SVG Export Plug-In  -->
<!DOCTYPE svg PUBLIC "-//W3C//DTD SVG 1.1//EN" "http://www.w3.org/Graphics/SVG/1.1/DTD/svg11.dtd" [
	<!ENTITY ns_flows "http://ns.adobe.com/Flows/1.0/">
]>
<svg version="1.1"
	 xmlns="http://www.w3.org/2000/svg" xmlns:xlink="http://www.w3.org/1999/xlink" xmlns:a="http://ns.adobe.com/AdobeSVGViewerExtensions/3.0/"
	 x="0px" y="0px" width="128px" height="128px" viewBox="-11.92 -11.92 128 128" enable-background="new -11.92 -11.92 128 128"
	 xml:space="preserve">
<defs>
</defs>
<path fill="#DA7527" d="M52.08,104.16C23.363,104.16,0,80.797,0,52.08S23.363,0,52.08,0c28.717,0,52.081,23.363,52.081,52.08
	S80.797,104.16,52.08,104.16z M52.08,13.183c-21.448,0-38.896,17.449-38.896,38.896c0,21.45,17.449,38.9,38.896,38.9
	s38.896-17.45,38.896-38.9C90.976,30.632,73.527,13.183,52.08,13.183z"/>
<path fill="#831338" d="M52.08,95.193c-23.772,0-43.113-19.341-43.113-43.113c0-23.772,19.341-43.113,43.113-43.113
	c23.773,0,43.114,19.341,43.114,43.113C95.193,75.853,75.853,95.193,52.08,95.193z M52.08,17.965
	c-18.811,0-34.115,15.303-34.115,34.115S33.269,86.198,52.08,86.198c18.812,0,34.115-15.307,34.115-34.118
	S70.892,17.965,52.08,17.965z"/>
</svg>
