<?xml version="1.0" encoding="utf-8"?>
<!-- Generator: Adobe Illustrator 15.1.0, SVG Export Plug-In  -->
<!DOCTYPE svg PUBLIC "-//W3C//DTD SVG 1.1//EN" "http://www.w3.org/Graphics/SVG/1.1/DTD/svg11.dtd" [
	<!ENTITY ns_flows "http://ns.adobe.com/Flows/1.0/">
]>
<svg version="1.1"
	 xmlns="http://www.w3.org/2000/svg" xmlns:xlink="http://www.w3.org/1999/xlink" xmlns:a="http://ns.adobe.com/AdobeSVGViewerExtensions/3.0/"
	 x="0px" y="0px" width="128px" height="128px" viewBox="-17.805 -11.329 128 128" enable-background="new -17.805 -11.329 128 128"
	 xml:space="preserve">
<defs>
</defs>
<path fill="#831338" d="M46.994,105.342c-0.189,0-0.377-0.048-0.544-0.145l-12.714-7.39c-0.286-0.168-0.48-0.453-0.527-0.78
	l-1.266-8.701l-12.608-7.327c-0.317-0.185-0.52-0.517-0.538-0.883L18.11,66.1L0.698,59.471c-0.438-0.167-0.719-0.596-0.696-1.063
	L1.534,25.89c0.016-0.346,0.197-0.664,0.486-0.854L39.854,0.178C40.034,0.06,40.241,0,40.449,0c0.187,0,0.375,0.049,0.543,0.147
	L91.85,29.703c0.35,0.203,0.557,0.584,0.538,0.987l-0.544,11.528c-0.016,0.338-0.188,0.648-0.468,0.84L62.963,62.656l-7.382,14.45
	l-7.544,27.44c-0.089,0.322-0.324,0.587-0.635,0.716C47.271,105.315,47.131,105.342,46.994,105.342z"/>
<linearGradient id="SVGID_1_" gradientUnits="userSpaceOnUse" x1="1.355" y1="2.2168" x2="91.0347" y2="2.2168" gradientTransform="matrix(1 0 0 -1 0 46)">
	<stop  offset="0" style="stop-color:#D47C73"/>
	<stop  offset="0.5273" style="stop-color:#D0305E"/>
	<stop  offset="1" style="stop-color:#9B5761"/>
</linearGradient>
<polygon fill="url(#SVGID_1_)" points="1.355,58.603 43.915,74.81 91.035,42.313 40.176,12.757 "/>
<polygon fill="#B0254F" points="40.176,12.757 91.035,42.313 91.58,30.784 40.72,1.228 "/>
<polygon fill="#831338" points="1.355,58.603 40.176,12.757 40.72,1.228 2.887,26.085 "/>
<polygon fill="#A7224B" points="41.764,37.893 67.193,52.672 66.721,43.035 41.292,28.258 "/>
<linearGradient id="SVGID_2_" gradientUnits="userSpaceOnUse" x1="20.1499" y1="-20.4395" x2="67.1929" y2="-20.4395" gradientTransform="matrix(1 0 0 -1 0 46)">
	<stop  offset="0" style="stop-color:#9B5761"/>
	<stop  offset="0.4727" style="stop-color:#D0305E"/>
	<stop  offset="1" style="stop-color:#D47C73"/>
</linearGradient>
<polygon fill="url(#SVGID_2_)" points="20.15,80.207 45.58,94.986 67.193,52.672 41.764,37.893 "/>
<polygon fill="#831338" points="20.15,80.207 41.764,37.893 41.292,28.258 18.818,53.033 "/>
<polygon fill="#9F1F46" points="44.758,59.892 57.472,67.281 56.326,59.382 43.612,51.993 "/>
<linearGradient id="SVGID_3_" gradientUnits="userSpaceOnUse" x1="52.6733" y1="-56.6489" x2="39.3515" y2="-15.6485" gradientTransform="matrix(1 0 0 -1 0 46)">
	<stop  offset="0" style="stop-color:#9B5761"/>
	<stop  offset="0.4727" style="stop-color:#D0305E"/>
	<stop  offset="1" style="stop-color:#D47C73"/>
</linearGradient>
<polygon fill="url(#SVGID_3_)" points="34.551,97.017 47.266,104.405 57.472,67.281 44.758,59.892 "/>
<polygon fill="#831338" points="34.551,97.017 44.758,59.892 43.612,51.993 31.313,74.739 "/>
</svg>
